<?xml version="1.0" encoding="UTF-8"?>
<svg width="700pt" height="700pt" version="1.1" viewBox="0 0 700 700" xmlns="http://www.w3.org/2000/svg" fill="#FFF">
	<g>
		<path d="m611.55 102.82c-6.832-2.0859-14.281 0.54688-18.199 6.5117l-12.18 18.297c-50.637-76.453-137.49-124.92-231.17-124.92-113.96 0-217.94 71.652-258.72 178.28-8.457 22.094 2.6172 46.844 24.711 55.301 22.094 8.4297 46.844-2.6172 55.301-24.711 28.18-73.699 100-123.21 178.71-123.21 64.316 0 124 33.082 159.05 85.387l-19.543 3.0117c-7.0859 1.1055-12.602 6.7344-13.551 13.848-0.96484 7.1133 2.8555 14 9.3945 16.941l114.2 51.379c0.11328 0.042969 0.22266 0.054687 0.30859 0.085937 2.0312 0.9375 4.2422 1.4961 6.6211 1.4961 7.2539 0 13.312-4.9414 15.121-11.621 0.48828-1.4961 0.8125-3.0664 0.82422-4.6602l0.57031-125.82c0.070312-7.1836-4.6211-13.512-11.453-15.582z"/>
		<path d="m584.01 323.71c-22.121-8.457-46.844 2.6328-55.285 24.738-28.184 73.695-100.02 123.21-178.72 123.21-64.328 0-124.01-33.066-159.07-85.398l19.543-3.0234c7.0977-1.1055 12.602-6.707 13.551-13.848 0.96484-7.0977-2.8555-14-9.3945-16.926l-114.2-51.395c-0.11328-0.042968-0.22266-0.054687-0.33594-0.085937-2.0039-0.9375-4.2266-1.4844-6.5938-1.4844-7.2656 0-13.328 4.957-15.148 11.621-0.46094 1.4844-0.78516 3.0664-0.79688 4.6484l-0.5625 125.83c-0.070312 7.1953 4.6328 13.512 11.453 15.555 6.8477 2.1016 14.266-0.51953 18.215-6.5117l12.18-18.324c50.625 76.469 137.45 124.96 231.15 124.96 113.97 0 217.93-71.664 258.71-178.3 8.4531-22.066-2.6055-46.801-24.695-55.273z"/>
	</g>
</svg>